<svg width="250" height="62" viewBox="0 0 250 62" fill="none" xmlns="http://www.w3.org/2000/svg">
<path d="M76.3605 29.4051H67.5326C66.2744 29.4051 65.2595 28.4144 65.2595 27.1953V24.7856C65.2595 23.5624 66.2786 22.5757 67.5326 22.5757H76.3605C77.6186 22.5757 78.6335 23.5665 78.6335 24.7856V27.1953C78.6335 28.4144 77.6186 29.4051 76.3605 29.4051Z" fill="url(#paint0_linear_2041_2420)"/>
<path d="M76.3605 29.4051H67.5326C66.2744 29.4051 65.2595 28.4144 65.2595 27.1953V24.7856C65.2595 23.5624 66.2786 22.5757 67.5326 22.5757H76.3605C77.6186 22.5757 78.6335 23.5665 78.6335 24.7856V27.1953C78.6335 28.4144 77.6186 29.4051 76.3605 29.4051Z" fill="url(#paint1_linear_2041_2420)"/>
<path d="M54.1753 1.12529L57.3374 4.16284C58.822 5.58988 58.822 7.92207 57.3374 9.35319L45.5613 20.6635C44.0935 22.0742 41.724 22.0661 40.2687 20.6431L37.2031 17.6504C35.7436 16.2234 35.7478 13.9197 37.2073 12.4968L48.887 1.1416C50.3464 -0.277287 52.7075 -0.281365 54.1753 1.12529Z" fill="url(#paint2_linear_2041_2420)"/>
<path d="M54.1753 1.12529L57.3374 4.16284C58.822 5.58988 58.822 7.92207 57.3374 9.35319L45.5613 20.6635C44.0935 22.0742 41.724 22.0661 40.2687 20.6431L37.2031 17.6504C35.7436 16.2234 35.7478 13.9197 37.2073 12.4968L48.887 1.1416C50.3464 -0.277287 52.7075 -0.281365 54.1753 1.12529Z" fill="url(#paint3_linear_2041_2420)"/>
<path d="M76.3605 29.4051H67.5326C66.2744 29.4051 65.2595 28.4144 65.2595 27.1953V24.7856C65.2595 23.5624 66.2786 22.5757 67.5326 22.5757H76.3605C77.6186 22.5757 78.6335 23.5665 78.6335 24.7856V27.1953C78.6335 28.4144 77.6186 29.4051 76.3605 29.4051Z" fill="url(#paint4_linear_2041_2420)"/>
<path d="M76.3605 29.4051H67.5326C66.2744 29.4051 65.2595 28.4144 65.2595 27.1953V24.7856C65.2595 23.5624 66.2786 22.5757 67.5326 22.5757H76.3605C77.6186 22.5757 78.6335 23.5665 78.6335 24.7856V27.1953C78.6335 28.4144 77.6186 29.4051 76.3605 29.4051Z" fill="url(#paint5_linear_2041_2420)"/>
<path d="M76.3605 29.4051H67.5326C66.2744 29.4051 65.2595 28.4144 65.2595 27.1953V24.7856C65.2595 23.5624 66.2786 22.5757 67.5326 22.5757H76.3605C77.6186 22.5757 78.6335 23.5665 78.6335 24.7856V27.1953C78.6335 28.4144 77.6186 29.4051 76.3605 29.4051Z" fill="url(#paint6_linear_2041_2420)"/>
<path d="M54.1753 1.12529L57.3374 4.16284C58.822 5.58988 58.822 7.92207 57.3374 9.35319L45.5613 20.6635C44.0935 22.0742 41.724 22.0661 40.2687 20.6431L37.2031 17.6504C35.7436 16.2234 35.7478 13.9197 37.2073 12.4968L48.887 1.1416C50.3464 -0.277287 52.7075 -0.281365 54.1753 1.12529Z" fill="url(#paint7_linear_2041_2420)"/>
<path d="M54.1753 1.12529L57.3374 4.16284C58.822 5.58988 58.822 7.92207 57.3374 9.35319L45.5613 20.6635C44.0935 22.0742 41.724 22.0661 40.2687 20.6431L37.2031 17.6504C35.7436 16.2234 35.7478 13.9197 37.2073 12.4968L48.887 1.1416C50.3464 -0.277287 52.7075 -0.281365 54.1753 1.12529Z" fill="url(#paint8_linear_2041_2420)"/>
<path d="M54.1753 1.12529L57.3374 4.16284C58.822 5.58988 58.822 7.92207 57.3374 9.35319L45.5613 20.6635C44.0935 22.0742 41.724 22.0661 40.2687 20.6431L37.2031 17.6504C35.7436 16.2234 35.7478 13.9197 37.2073 12.4968L48.887 1.1416C50.3464 -0.277287 52.7075 -0.281365 54.1753 1.12529Z" fill="url(#paint9_linear_2041_2420)"/>
<path d="M14.5694 1.07186C13.2483 -0.342948 11.1053 -0.363335 9.76327 1.03516L6.89472 4.02379C5.53593 5.4386 5.51916 7.76263 6.85278 9.2019L17.8741 21.0789C18.9351 22.2247 18.9351 24.0717 17.8741 25.2174L0.98987 42.7985C-0.339561 44.2296 -0.326979 46.5414 1.01503 47.9603L3.82487 50.9245C5.16269 52.3352 7.30991 52.327 8.63934 50.9081L32.7494 25.7229C34.083 24.3 34.083 21.9963 32.7536 20.5693L14.5694 1.07186Z" fill="url(#paint10_linear_2041_2420)"/>
<path d="M90.0783 4.63989V12.3051V39.7206C90.0783 45.3798 85.6874 48.4826 80.3236 48.4826C78.2561 48.4826 75.2072 48.5438 72.909 47.9485H72.9048C68.6942 46.4562 62.6006 41.9753 57.5262 37.4047C57.4633 37.3354 57.4045 37.2702 57.3374 37.2049L53.2485 33.2785C53.0514 33.0706 52.8585 32.8667 52.6698 32.6669L52.6404 32.6914L45.5613 25.8946C44.0935 24.4839 41.7282 24.492 40.2687 25.915L37.2031 28.9077C35.7436 30.3348 35.7478 32.6384 37.2115 34.0614L43.4183 40.0957C44.8442 41.6247 48.7821 46.0933 54.0285 50.4234C59.275 54.7575 65.8341 58.953 72.5064 59.9478C72.6406 59.9682 72.7706 59.9886 72.9048 60.0049C74.7249 60.2618 76.5324 60.429 78.319 60.429C78.5664 60.429 78.8138 60.4249 79.0571 60.4208C80.311 60.4534 81.6404 60.3066 82.9154 60.1191C83.1376 60.0865 83.3599 60.0498 83.5822 60.0172C83.8506 59.9764 84.1106 59.9315 84.3706 59.8908C84.3832 59.8908 84.3958 59.8867 84.4083 59.8867C90.6361 59.1365 96.0125 56.4129 99.3466 52.0584C101.62 49.0901 102.945 45.3635 102.945 40.9886V4.63989H90.0783Z" fill="url(#paint11_linear_2041_2420)"/>
<path d="M132.57 20.0029C119.699 20.0029 110.812 28.345 110.812 40.5604C110.812 52.6984 119.699 61.1139 132.57 61.1139C145.516 61.1139 154.403 52.6984 154.403 40.5604C154.403 28.345 145.516 20.0029 132.57 20.0029ZM132.57 51.2836C126.594 51.2836 122.383 46.815 122.383 40.5604C122.383 34.3019 126.594 29.8332 132.57 29.8332C138.621 29.8332 142.836 34.3019 142.836 40.5604C142.836 46.815 138.621 51.2836 132.57 51.2836Z" fill="#160041"/>
<path d="M187.877 20.0029C182.514 20.0029 178.072 22.2372 174.931 26.1106V4.36255H163.44V59.6257H174.776V55.0061C177.917 58.8061 182.438 61.1139 187.877 61.1139C198.752 61.1139 206.489 52.625 206.489 40.5604C206.489 28.4958 198.832 20.0029 187.877 20.0029ZM184.736 51.0593C178.76 51.0593 174.47 46.5907 174.47 40.5604C174.47 34.5261 178.76 30.0574 184.736 30.0574C190.708 30.0574 194.998 34.5261 194.998 40.5604C194.998 46.6681 190.633 51.0593 184.736 51.0593Z" fill="#160041"/>
<path d="M231.996 36.0143C227.555 35.3456 224.108 34.6036 224.108 32.0675C224.183 29.5355 227.018 27.7497 230.541 27.7497C235.137 27.7497 238.585 29.9106 238.585 33.0379H248.7C248.7 25.3645 241.113 19.8561 230.62 19.8561C221.042 19.8561 213.766 25.2177 213.766 32.6628C213.766 41.9752 221.042 43.3167 229.778 44.3564C234.525 44.8049 238.97 45.6978 238.97 48.9025C238.97 51.4345 235.905 53.3712 231.69 53.3712C226.712 53.3712 223.114 50.6883 223.114 46.8883H213.384C213.304 55.2304 220.966 61.2647 231.539 61.2647C242.493 61.2647 250 55.528 250 47.5611C250 38.6237 239.964 37.0581 231.996 36.0143Z" fill="#160041"/>
<defs>
<linearGradient id="paint0_linear_2041_2420" x1="65.2573" y1="25.9878" x2="78.6352" y2="25.9878" gradientUnits="userSpaceOnUse">
<stop stop-color="#FFB370"/>
<stop offset="0.2364" stop-color="#FF9284"/>
<stop offset="0.7562" stop-color="#FF4FAE"/>
<stop offset="1" stop-color="#FF34BF"/>
</linearGradient>
<linearGradient id="paint1_linear_2041_2420" x1="65.2573" y1="25.9878" x2="78.6352" y2="25.9878" gradientUnits="userSpaceOnUse">
<stop stop-color="#FFB370"/>
<stop offset="0.2364" stop-color="#FF9284"/>
<stop offset="0.7562" stop-color="#FF4FAE"/>
<stop offset="1" stop-color="#FF34BF"/>
</linearGradient>
<linearGradient id="paint2_linear_2041_2420" x1="36.1119" y1="10.8927" x2="58.4525" y2="10.8927" gradientUnits="userSpaceOnUse">
<stop stop-color="#FFB370"/>
<stop offset="0.2364" stop-color="#FF9284"/>
<stop offset="0.7562" stop-color="#FF4FAE"/>
<stop offset="1" stop-color="#FF34BF"/>
</linearGradient>
<linearGradient id="paint3_linear_2041_2420" x1="36.1119" y1="10.8927" x2="58.4525" y2="10.8927" gradientUnits="userSpaceOnUse">
<stop stop-color="#FFB370"/>
<stop offset="0.2364" stop-color="#FF9284"/>
<stop offset="0.7562" stop-color="#FF4FAE"/>
<stop offset="1" stop-color="#FF34BF"/>
</linearGradient>
<linearGradient id="paint4_linear_2041_2420" x1="32.4785" y1="9.46341" x2="52.6623" y2="13.6156" gradientUnits="userSpaceOnUse">
<stop stop-color="#650CFE"/>
<stop offset="0.2538" stop-color="#771DFE"/>
<stop offset="0.7575" stop-color="#A449FF"/>
<stop offset="1" stop-color="#BC61FF"/>
</linearGradient>
<linearGradient id="paint5_linear_2041_2420" x1="32.4785" y1="9.46341" x2="52.6623" y2="13.6156" gradientUnits="userSpaceOnUse">
<stop stop-color="#650CFE"/>
<stop offset="0.2538" stop-color="#771DFE"/>
<stop offset="0.7575" stop-color="#A449FF"/>
<stop offset="1" stop-color="#BC61FF"/>
</linearGradient>
<linearGradient id="paint6_linear_2041_2420" x1="32.4785" y1="9.46341" x2="52.6623" y2="13.6156" gradientUnits="userSpaceOnUse">
<stop stop-color="#650CFE"/>
<stop offset="0.2538" stop-color="#771DFE"/>
<stop offset="0.7575" stop-color="#A449FF"/>
<stop offset="1" stop-color="#BC61FF"/>
</linearGradient>
<linearGradient id="paint7_linear_2041_2420" x1="32.4785" y1="9.4634" x2="52.6623" y2="13.6156" gradientUnits="userSpaceOnUse">
<stop stop-color="#650CFE"/>
<stop offset="0.2538" stop-color="#771DFE"/>
<stop offset="0.7575" stop-color="#A449FF"/>
<stop offset="1" stop-color="#BC61FF"/>
</linearGradient>
<linearGradient id="paint8_linear_2041_2420" x1="32.4785" y1="9.4634" x2="52.6623" y2="13.6156" gradientUnits="userSpaceOnUse">
<stop stop-color="#650CFE"/>
<stop offset="0.2538" stop-color="#771DFE"/>
<stop offset="0.7575" stop-color="#A449FF"/>
<stop offset="1" stop-color="#BC61FF"/>
</linearGradient>
<linearGradient id="paint9_linear_2041_2420" x1="32.4785" y1="9.4634" x2="52.6623" y2="13.6156" gradientUnits="userSpaceOnUse">
<stop stop-color="#650CFE"/>
<stop offset="0.2538" stop-color="#771DFE"/>
<stop offset="0.7575" stop-color="#A449FF"/>
<stop offset="1" stop-color="#BC61FF"/>
</linearGradient>
<linearGradient id="paint10_linear_2041_2420" x1="0.518069" y1="9.26698" x2="28.3795" y2="54.3005" gradientUnits="userSpaceOnUse">
<stop stop-color="#FFB370"/>
<stop offset="0.2364" stop-color="#FF9284"/>
<stop offset="0.7562" stop-color="#FF4FAE"/>
<stop offset="1" stop-color="#FF34BF"/>
</linearGradient>
<linearGradient id="paint11_linear_2041_2420" x1="36.8601" y1="29.6905" x2="80.0732" y2="32.126" gradientUnits="userSpaceOnUse">
<stop stop-color="#6A11FE"/>
<stop offset="0.3337" stop-color="#A147FF"/>
<stop offset="0.5225" stop-color="#BC61FF"/>
<stop offset="0.5807" stop-color="#B85EFA"/>
<stop offset="0.6507" stop-color="#AB57EB"/>
<stop offset="0.7268" stop-color="#954AD3"/>
<stop offset="0.8073" stop-color="#7839B1"/>
<stop offset="0.8912" stop-color="#522385"/>
<stop offset="0.9767" stop-color="#240851"/>
<stop offset="1" stop-color="#160041"/>
</linearGradient>
</defs>
</svg>
